<mxfile host="Electron" agent="Mozilla/5.0 (Macintosh; Intel Mac OS X 10_15_7) AppleWebKit/537.36 (KHTML, like Gecko) draw.io/26.0.4 Chrome/128.0.6613.186 Electron/32.2.5 Safari/537.36" version="26.0.4">
  <diagram name="페이지-1" id="aM6x_1uWuoNGLIx67v63">
    <mxGraphModel dx="1591" dy="1427" grid="1" gridSize="10" guides="1" tooltips="1" connect="1" arrows="1" fold="1" page="1" pageScale="1" pageWidth="827" pageHeight="1169" math="0" shadow="0">
      <root>
        <mxCell id="0" />
        <mxCell id="1" parent="0" />
        <mxCell id="A8NtAJY7kiPGqtaC52Vw-9" value="" style="rounded=0;whiteSpace=wrap;html=1;" vertex="1" parent="1">
          <mxGeometry x="40" y="80" width="640" height="320" as="geometry" />
        </mxCell>
        <mxCell id="A8NtAJY7kiPGqtaC52Vw-4" style="edgeStyle=orthogonalEdgeStyle;rounded=0;orthogonalLoop=1;jettySize=auto;html=1;entryX=0;entryY=0.5;entryDx=0;entryDy=0;" edge="1" parent="1" source="A8NtAJY7kiPGqtaC52Vw-1" target="A8NtAJY7kiPGqtaC52Vw-3">
          <mxGeometry relative="1" as="geometry" />
        </mxCell>
        <mxCell id="A8NtAJY7kiPGqtaC52Vw-1" value="Wallet&lt;div&gt;(Provider)&lt;/div&gt;" style="rounded=1;whiteSpace=wrap;html=1;" vertex="1" parent="1">
          <mxGeometry x="80" y="120" width="120" height="60" as="geometry" />
        </mxCell>
        <mxCell id="A8NtAJY7kiPGqtaC52Vw-5" style="edgeStyle=orthogonalEdgeStyle;rounded=0;orthogonalLoop=1;jettySize=auto;html=1;entryX=0;entryY=0.5;entryDx=0;entryDy=0;" edge="1" parent="1" source="A8NtAJY7kiPGqtaC52Vw-2" target="A8NtAJY7kiPGqtaC52Vw-3">
          <mxGeometry relative="1" as="geometry" />
        </mxCell>
        <mxCell id="A8NtAJY7kiPGqtaC52Vw-2" value="Web Page&lt;div&gt;(Consumer)&lt;/div&gt;" style="rounded=1;whiteSpace=wrap;html=1;" vertex="1" parent="1">
          <mxGeometry x="80" y="220" width="120" height="60" as="geometry" />
        </mxCell>
        <mxCell id="A8NtAJY7kiPGqtaC52Vw-53" style="edgeStyle=orthogonalEdgeStyle;rounded=0;orthogonalLoop=1;jettySize=auto;html=1;" edge="1" parent="1" source="A8NtAJY7kiPGqtaC52Vw-3" target="A8NtAJY7kiPGqtaC52Vw-24">
          <mxGeometry relative="1" as="geometry" />
        </mxCell>
        <mxCell id="A8NtAJY7kiPGqtaC52Vw-3" value="Server" style="rounded=1;whiteSpace=wrap;html=1;" vertex="1" parent="1">
          <mxGeometry x="520" y="170" width="120" height="60" as="geometry" />
        </mxCell>
        <mxCell id="A8NtAJY7kiPGqtaC52Vw-6" value="signup" style="text;html=1;align=center;verticalAlign=middle;whiteSpace=wrap;rounded=0;" vertex="1" parent="1">
          <mxGeometry x="410" y="170" width="60" height="30" as="geometry" />
        </mxCell>
        <mxCell id="A8NtAJY7kiPGqtaC52Vw-7" value="publicKey, type = 0" style="text;html=1;align=center;verticalAlign=middle;whiteSpace=wrap;rounded=0;" vertex="1" parent="1">
          <mxGeometry x="250" y="120" width="60" height="30" as="geometry" />
        </mxCell>
        <mxCell id="A8NtAJY7kiPGqtaC52Vw-8" value="publicKey, type = 1" style="text;html=1;align=center;verticalAlign=middle;whiteSpace=wrap;rounded=0;" vertex="1" parent="1">
          <mxGeometry x="250" y="220" width="60" height="30" as="geometry" />
        </mxCell>
        <mxCell id="A8NtAJY7kiPGqtaC52Vw-10" value="Registration" style="text;html=1;align=center;verticalAlign=middle;whiteSpace=wrap;rounded=0;fontStyle=1" vertex="1" parent="1">
          <mxGeometry x="600" y="90" width="70" height="30" as="geometry" />
        </mxCell>
        <mxCell id="A8NtAJY7kiPGqtaC52Vw-11" value="" style="rounded=0;whiteSpace=wrap;html=1;" vertex="1" parent="1">
          <mxGeometry x="40" y="440" width="640" height="280" as="geometry" />
        </mxCell>
        <mxCell id="A8NtAJY7kiPGqtaC52Vw-12" value="Order" style="text;html=1;align=center;verticalAlign=middle;whiteSpace=wrap;rounded=0;fontStyle=1" vertex="1" parent="1">
          <mxGeometry x="610" y="450" width="60" height="30" as="geometry" />
        </mxCell>
        <mxCell id="A8NtAJY7kiPGqtaC52Vw-19" style="edgeStyle=orthogonalEdgeStyle;rounded=0;orthogonalLoop=1;jettySize=auto;html=1;entryX=0;entryY=0.5;entryDx=0;entryDy=0;" edge="1" parent="1" source="A8NtAJY7kiPGqtaC52Vw-13" target="A8NtAJY7kiPGqtaC52Vw-17">
          <mxGeometry relative="1" as="geometry" />
        </mxCell>
        <mxCell id="A8NtAJY7kiPGqtaC52Vw-55" style="edgeStyle=orthogonalEdgeStyle;rounded=0;orthogonalLoop=1;jettySize=auto;html=1;entryX=0.5;entryY=0;entryDx=0;entryDy=0;" edge="1" parent="1" source="A8NtAJY7kiPGqtaC52Vw-13" target="A8NtAJY7kiPGqtaC52Vw-22">
          <mxGeometry relative="1" as="geometry" />
        </mxCell>
        <mxCell id="A8NtAJY7kiPGqtaC52Vw-13" value="Server" style="rounded=1;whiteSpace=wrap;html=1;" vertex="1" parent="1">
          <mxGeometry x="300" y="500" width="120" height="60" as="geometry" />
        </mxCell>
        <mxCell id="A8NtAJY7kiPGqtaC52Vw-15" style="edgeStyle=orthogonalEdgeStyle;rounded=0;orthogonalLoop=1;jettySize=auto;html=1;entryX=0;entryY=0.5;entryDx=0;entryDy=0;" edge="1" parent="1" source="A8NtAJY7kiPGqtaC52Vw-14" target="A8NtAJY7kiPGqtaC52Vw-13">
          <mxGeometry relative="1" as="geometry" />
        </mxCell>
        <mxCell id="A8NtAJY7kiPGqtaC52Vw-14" value="Web Page&lt;div&gt;(Consumer)&lt;/div&gt;" style="rounded=1;whiteSpace=wrap;html=1;" vertex="1" parent="1">
          <mxGeometry x="80" y="500" width="120" height="60" as="geometry" />
        </mxCell>
        <mxCell id="A8NtAJY7kiPGqtaC52Vw-16" value="queries" style="text;html=1;align=center;verticalAlign=middle;whiteSpace=wrap;rounded=0;" vertex="1" parent="1">
          <mxGeometry x="220" y="500" width="60" height="30" as="geometry" />
        </mxCell>
        <mxCell id="A8NtAJY7kiPGqtaC52Vw-17" value="Wallet&lt;div&gt;(Provider)&lt;/div&gt;" style="rounded=1;whiteSpace=wrap;html=1;" vertex="1" parent="1">
          <mxGeometry x="520" y="500" width="120" height="60" as="geometry" />
        </mxCell>
        <mxCell id="A8NtAJY7kiPGqtaC52Vw-20" value="queries" style="text;html=1;align=center;verticalAlign=middle;whiteSpace=wrap;rounded=0;" vertex="1" parent="1">
          <mxGeometry x="440" y="500" width="60" height="30" as="geometry" />
        </mxCell>
        <mxCell id="A8NtAJY7kiPGqtaC52Vw-21" value="" style="shape=cylinder3;whiteSpace=wrap;html=1;boundedLbl=1;backgroundOutline=1;size=15;" vertex="1" parent="1">
          <mxGeometry x="300" y="640" width="120" height="60" as="geometry" />
        </mxCell>
        <mxCell id="A8NtAJY7kiPGqtaC52Vw-22" value="ORDER" style="text;html=1;align=center;verticalAlign=middle;whiteSpace=wrap;rounded=0;" vertex="1" parent="1">
          <mxGeometry x="330" y="610" width="60" height="30" as="geometry" />
        </mxCell>
        <mxCell id="A8NtAJY7kiPGqtaC52Vw-23" value="" style="shape=cylinder3;whiteSpace=wrap;html=1;boundedLbl=1;backgroundOutline=1;size=15;" vertex="1" parent="1">
          <mxGeometry x="520" y="300" width="120" height="60" as="geometry" />
        </mxCell>
        <mxCell id="A8NtAJY7kiPGqtaC52Vw-24" value="CLIENT" style="text;html=1;align=center;verticalAlign=middle;whiteSpace=wrap;rounded=0;" vertex="1" parent="1">
          <mxGeometry x="550" y="270" width="60" height="30" as="geometry" />
        </mxCell>
        <mxCell id="A8NtAJY7kiPGqtaC52Vw-25" value="" style="rounded=0;whiteSpace=wrap;html=1;" vertex="1" parent="1">
          <mxGeometry x="40" y="760" width="640" height="320" as="geometry" />
        </mxCell>
        <mxCell id="A8NtAJY7kiPGqtaC52Vw-26" value="Provide" style="text;html=1;align=center;verticalAlign=middle;whiteSpace=wrap;rounded=0;fontStyle=1" vertex="1" parent="1">
          <mxGeometry x="610" y="770" width="60" height="30" as="geometry" />
        </mxCell>
        <mxCell id="A8NtAJY7kiPGqtaC52Vw-34" style="edgeStyle=orthogonalEdgeStyle;rounded=0;orthogonalLoop=1;jettySize=auto;html=1;entryX=1;entryY=0.5;entryDx=0;entryDy=0;" edge="1" parent="1" source="A8NtAJY7kiPGqtaC52Vw-27" target="A8NtAJY7kiPGqtaC52Vw-33">
          <mxGeometry relative="1" as="geometry" />
        </mxCell>
        <mxCell id="A8NtAJY7kiPGqtaC52Vw-57" style="edgeStyle=orthogonalEdgeStyle;rounded=0;orthogonalLoop=1;jettySize=auto;html=1;entryX=0.5;entryY=0;entryDx=0;entryDy=0;" edge="1" parent="1" source="A8NtAJY7kiPGqtaC52Vw-27" target="A8NtAJY7kiPGqtaC52Vw-32">
          <mxGeometry relative="1" as="geometry" />
        </mxCell>
        <mxCell id="A8NtAJY7kiPGqtaC52Vw-27" value="Server" style="rounded=1;whiteSpace=wrap;html=1;" vertex="1" parent="1">
          <mxGeometry x="300" y="840" width="120" height="60" as="geometry" />
        </mxCell>
        <mxCell id="A8NtAJY7kiPGqtaC52Vw-29" style="edgeStyle=orthogonalEdgeStyle;rounded=0;orthogonalLoop=1;jettySize=auto;html=1;entryX=1;entryY=0.5;entryDx=0;entryDy=0;" edge="1" parent="1" source="A8NtAJY7kiPGqtaC52Vw-28" target="A8NtAJY7kiPGqtaC52Vw-27">
          <mxGeometry relative="1" as="geometry" />
        </mxCell>
        <mxCell id="A8NtAJY7kiPGqtaC52Vw-28" value="Wallet&lt;div&gt;(Provider)&lt;/div&gt;" style="rounded=1;whiteSpace=wrap;html=1;" vertex="1" parent="1">
          <mxGeometry x="520" y="840" width="120" height="60" as="geometry" />
        </mxCell>
        <mxCell id="A8NtAJY7kiPGqtaC52Vw-30" value="product" style="text;html=1;align=center;verticalAlign=middle;whiteSpace=wrap;rounded=0;" vertex="1" parent="1">
          <mxGeometry x="440" y="840" width="60" height="30" as="geometry" />
        </mxCell>
        <mxCell id="A8NtAJY7kiPGqtaC52Vw-31" value="" style="shape=cylinder3;whiteSpace=wrap;html=1;boundedLbl=1;backgroundOutline=1;size=15;" vertex="1" parent="1">
          <mxGeometry x="300" y="980" width="120" height="60" as="geometry" />
        </mxCell>
        <mxCell id="A8NtAJY7kiPGqtaC52Vw-32" value="PRODUCT" style="text;html=1;align=center;verticalAlign=middle;whiteSpace=wrap;rounded=0;" vertex="1" parent="1">
          <mxGeometry x="330" y="950" width="60" height="30" as="geometry" />
        </mxCell>
        <mxCell id="A8NtAJY7kiPGqtaC52Vw-33" value="Web Page&lt;div&gt;(Consumer)&lt;/div&gt;" style="rounded=1;whiteSpace=wrap;html=1;" vertex="1" parent="1">
          <mxGeometry x="80" y="840" width="120" height="60" as="geometry" />
        </mxCell>
        <mxCell id="A8NtAJY7kiPGqtaC52Vw-35" value="product" style="text;html=1;align=center;verticalAlign=middle;whiteSpace=wrap;rounded=0;" vertex="1" parent="1">
          <mxGeometry x="220" y="840" width="60" height="30" as="geometry" />
        </mxCell>
        <mxCell id="A8NtAJY7kiPGqtaC52Vw-36" value="" style="rounded=0;whiteSpace=wrap;html=1;" vertex="1" parent="1">
          <mxGeometry x="40" y="1120" width="640" height="280" as="geometry" />
        </mxCell>
        <mxCell id="A8NtAJY7kiPGqtaC52Vw-37" value="Consume" style="text;html=1;align=center;verticalAlign=middle;whiteSpace=wrap;rounded=0;fontStyle=1" vertex="1" parent="1">
          <mxGeometry x="610" y="1130" width="60" height="30" as="geometry" />
        </mxCell>
        <mxCell id="A8NtAJY7kiPGqtaC52Vw-49" style="edgeStyle=orthogonalEdgeStyle;rounded=0;orthogonalLoop=1;jettySize=auto;html=1;entryX=0.5;entryY=0;entryDx=0;entryDy=0;" edge="1" parent="1" source="A8NtAJY7kiPGqtaC52Vw-39" target="A8NtAJY7kiPGqtaC52Vw-44">
          <mxGeometry relative="1" as="geometry" />
        </mxCell>
        <mxCell id="A8NtAJY7kiPGqtaC52Vw-39" value="Server" style="rounded=1;whiteSpace=wrap;html=1;" vertex="1" parent="1">
          <mxGeometry x="300" y="1180" width="120" height="60" as="geometry" />
        </mxCell>
        <mxCell id="A8NtAJY7kiPGqtaC52Vw-41" value="Wallet&lt;div&gt;(Provider)&lt;/div&gt;" style="rounded=1;whiteSpace=wrap;html=1;" vertex="1" parent="1">
          <mxGeometry x="520" y="1180" width="120" height="60" as="geometry" />
        </mxCell>
        <mxCell id="A8NtAJY7kiPGqtaC52Vw-43" value="" style="shape=cylinder3;whiteSpace=wrap;html=1;boundedLbl=1;backgroundOutline=1;size=15;" vertex="1" parent="1">
          <mxGeometry x="300" y="1320" width="120" height="60" as="geometry" />
        </mxCell>
        <mxCell id="A8NtAJY7kiPGqtaC52Vw-44" value="PRODUCT" style="text;html=1;align=center;verticalAlign=middle;whiteSpace=wrap;rounded=0;" vertex="1" parent="1">
          <mxGeometry x="330" y="1290" width="60" height="30" as="geometry" />
        </mxCell>
        <mxCell id="A8NtAJY7kiPGqtaC52Vw-48" style="edgeStyle=orthogonalEdgeStyle;rounded=0;orthogonalLoop=1;jettySize=auto;html=1;entryX=0;entryY=0.5;entryDx=0;entryDy=0;" edge="1" parent="1" source="A8NtAJY7kiPGqtaC52Vw-45" target="A8NtAJY7kiPGqtaC52Vw-39">
          <mxGeometry relative="1" as="geometry" />
        </mxCell>
        <mxCell id="A8NtAJY7kiPGqtaC52Vw-45" value="Web Page&lt;div&gt;(Consumer)&lt;/div&gt;" style="rounded=1;whiteSpace=wrap;html=1;" vertex="1" parent="1">
          <mxGeometry x="80" y="1180" width="120" height="60" as="geometry" />
        </mxCell>
        <mxCell id="A8NtAJY7kiPGqtaC52Vw-46" value="consume" style="text;html=1;align=center;verticalAlign=middle;whiteSpace=wrap;rounded=0;" vertex="1" parent="1">
          <mxGeometry x="220" y="1180" width="60" height="30" as="geometry" />
        </mxCell>
        <mxCell id="A8NtAJY7kiPGqtaC52Vw-50" value="delete" style="text;html=1;align=center;verticalAlign=middle;whiteSpace=wrap;rounded=0;" vertex="1" parent="1">
          <mxGeometry x="350" y="1245" width="60" height="30" as="geometry" />
        </mxCell>
        <mxCell id="A8NtAJY7kiPGqtaC52Vw-54" value="save" style="text;html=1;align=center;verticalAlign=middle;whiteSpace=wrap;rounded=0;" vertex="1" parent="1">
          <mxGeometry x="570" y="230" width="60" height="30" as="geometry" />
        </mxCell>
        <mxCell id="A8NtAJY7kiPGqtaC52Vw-56" value="save" style="text;html=1;align=center;verticalAlign=middle;whiteSpace=wrap;rounded=0;" vertex="1" parent="1">
          <mxGeometry x="350" y="565" width="60" height="30" as="geometry" />
        </mxCell>
        <mxCell id="A8NtAJY7kiPGqtaC52Vw-58" value="save" style="text;html=1;align=center;verticalAlign=middle;whiteSpace=wrap;rounded=0;" vertex="1" parent="1">
          <mxGeometry x="350" y="905" width="60" height="30" as="geometry" />
        </mxCell>
      </root>
    </mxGraphModel>
  </diagram>
</mxfile>
